<svg xmlns="http://www.w3.org/2000/svg" height="72" width="624" viewBox="0 0 624 72"><title>fisherman-b-w</title><g transform="translate(-3.548 -10.57)"><path d="m139.6 0.001953c-22.2-0.1504-40.57 6.706-41.18 25.9-0.7775 24.56 29.18 14.95 28.2 22.14-0.9878 7.27-28.15 3.254-28.15 3.254l-5.223 18.5s21.88 4.409 38.68 0.7715c17.54-3.799 22.98-18.93 21.6-28.86-2.747-19.71-27.16-10.11-28.14-18.29-0.4334-3.604 10.62-5.505 28.58-3.209l4.8-18.54c-6.5-1.024-13-1.616-19.2-1.658zm460.8 1.031-6.633 39.96-9.424-39.87h-31.63l-12.38 69.67h23.25l6.973-40.64 10.08 40.87h30.96l12.3-69.99zm-296.6 0.02734-12.3 69.75h26.06l4.117-22.23c5.221 0.7267 6.712-1.048 8.361 8.393 1.686 8.937 2.256 13.8 2.256 13.8h24.78l-0.0137 0.03516h23.36l13.34-37.87 0.666 37.87h29.56l14.64-39.79-0.8144 39.96 23.47-0.07031-0.002-0.09766h23.46l4.748-10.95h20.71l0.8828 10.99h26.72l-12.48-69.63-30.19-0.1074-33.98 63.98-1.438-63.95h-30.41l-15.22 42.31-0.4766-42.25-30.69-0.0918-9.096 24.5-14.77 39.8c-0.8916-3.536-1.952-7.941-2.689-11.84-2.212-11.69-8.496-13.73-8.496-13.73s6.377-0.8592 10.35-5.402c5.96-6.809 11.83-19.71 1.283-29.67-5.1-4.696-7.6-2.653-55.7-3.709zm-136.8 0.03516-12.39 69.64h26.34l4.379-24.86h14.71l-4.381 24.93h18.29c-5.199-2.077-5.897-14.76-10.37-45.84h-14.49l4.193-23.86zm75.03 0-12.45 69.71h23.06c5.62-3.446 9.468-9.736 8.605-20.09-2.967-0.5382-10.66 6.089-10.58 3.467l13.71-32.53v-0.06836h0.0293l0.0274-0.06641c0.001 0.01985 0.007 0.04636 0.008 0.06641l29.34-0.0625 3.629-20.42zm-170.4 0.00781-12.39 69.71h26.64l12.34-69.71zm-59.23 0.016-12.37 69.68h26.61l4.082-23.05h27.69l3.543-19.99h-27.7l1.107-6.244h29.2l3.586-20.4zm195.7 0.03906-0.2812 1.572c8.267 51.16 7.431 59.65 14.74 66.37 0.0143 0.01396 0.0324 0.0271 0.0469 0.04102l12-67.98zm118.2 17.34c7.301 0.1438 12.44-0.6162 11.78 6.09-1.094 7.257-8.579 6.011-14.14 5.523zm180.8 0.7637 1.643 21.99h-11.22zm-215.8 7.637-26.1 0.1211c0.9662 4.862 2.467 11.26 3.33 17.85h19.58zm-22.22 23.8c0.7709 8.13-0.818 14.67-5.43 20.1h21.27l3.629-20.1z" fill-rule="evenodd" transform="translate(3.548 10.57)"/></g></svg>
